<mxfile host="app.diagrams.net" agent="Mozilla/5.0 (Macintosh; Intel Mac OS X 10_15_7) AppleWebKit/537.36 (KHTML, like Gecko) Chrome/133.0.0.0 Safari/537.36" version="26.0.14">
  <diagram id="C5RBs43oDa-KdzZeNtuy" name="Page-1">
    <mxGraphModel dx="1434" dy="676" grid="1" gridSize="10" guides="1" tooltips="1" connect="1" arrows="1" fold="1" page="1" pageScale="1" pageWidth="827" pageHeight="1169" math="0" shadow="0">
      <root>
        <mxCell id="WIyWlLk6GJQsqaUBKTNV-0" />
        <mxCell id="WIyWlLk6GJQsqaUBKTNV-1" parent="WIyWlLk6GJQsqaUBKTNV-0" />
        <mxCell id="fx0zeS7ggwG3Q2NJHzNw-10" value="Student" style="swimlane;fontStyle=1;align=center;verticalAlign=top;childLayout=stackLayout;horizontal=1;startSize=26;horizontalStack=0;resizeParent=1;resizeParentMax=0;resizeLast=0;collapsible=1;marginBottom=0;whiteSpace=wrap;html=1;" parent="WIyWlLk6GJQsqaUBKTNV-1" vertex="1">
          <mxGeometry x="130" y="290" width="160" height="250" as="geometry" />
        </mxCell>
        <mxCell id="fx0zeS7ggwG3Q2NJHzNw-11" value="+ first_name: str&lt;div&gt;+ last_name: str&lt;/div&gt;&lt;div&gt;+ email_address: str&lt;/div&gt;&lt;div&gt;+ course_id: int&lt;/div&gt;&lt;div&gt;+ grades: str&lt;/div&gt;&lt;div&gt;+ marks: int&lt;/div&gt;" style="text;strokeColor=none;fillColor=none;align=left;verticalAlign=top;spacingLeft=4;spacingRight=4;overflow=hidden;rotatable=0;points=[[0,0.5],[1,0.5]];portConstraint=eastwest;whiteSpace=wrap;html=1;" parent="fx0zeS7ggwG3Q2NJHzNw-10" vertex="1">
          <mxGeometry y="26" width="160" height="94" as="geometry" />
        </mxCell>
        <mxCell id="fx0zeS7ggwG3Q2NJHzNw-12" value="" style="line;strokeWidth=1;fillColor=none;align=left;verticalAlign=middle;spacingTop=-1;spacingLeft=3;spacingRight=3;rotatable=0;labelPosition=right;points=[];portConstraint=eastwest;strokeColor=inherit;" parent="fx0zeS7ggwG3Q2NJHzNw-10" vertex="1">
          <mxGeometry y="120" width="160" height="8" as="geometry" />
        </mxCell>
        <mxCell id="fx0zeS7ggwG3Q2NJHzNw-13" value="+ display_student_records()&lt;div&gt;+ add_new_student()&lt;/div&gt;&lt;div&gt;+ delete_student()&lt;/div&gt;&lt;div&gt;+ check_my_grades()&lt;/div&gt;&lt;div&gt;+ update_student_record()&lt;/div&gt;&lt;div&gt;+ check_my_marks()&lt;/div&gt;&lt;div&gt;&lt;br&gt;&lt;/div&gt;" style="text;strokeColor=none;fillColor=none;align=left;verticalAlign=top;spacingLeft=4;spacingRight=4;overflow=hidden;rotatable=0;points=[[0,0.5],[1,0.5]];portConstraint=eastwest;whiteSpace=wrap;html=1;" parent="fx0zeS7ggwG3Q2NJHzNw-10" vertex="1">
          <mxGeometry y="128" width="160" height="122" as="geometry" />
        </mxCell>
        <mxCell id="fx0zeS7ggwG3Q2NJHzNw-14" value="Course" style="swimlane;fontStyle=1;align=center;verticalAlign=top;childLayout=stackLayout;horizontal=1;startSize=26;horizontalStack=0;resizeParent=1;resizeParentMax=0;resizeLast=0;collapsible=1;marginBottom=0;whiteSpace=wrap;html=1;" parent="WIyWlLk6GJQsqaUBKTNV-1" vertex="1">
          <mxGeometry x="510" y="270" width="160" height="200" as="geometry" />
        </mxCell>
        <mxCell id="fx0zeS7ggwG3Q2NJHzNw-15" value="+ course_id: int&lt;div&gt;+ credits: int&lt;/div&gt;&lt;div&gt;+ course_name: str&lt;/div&gt;" style="text;strokeColor=none;fillColor=none;align=left;verticalAlign=top;spacingLeft=4;spacingRight=4;overflow=hidden;rotatable=0;points=[[0,0.5],[1,0.5]];portConstraint=eastwest;whiteSpace=wrap;html=1;" parent="fx0zeS7ggwG3Q2NJHzNw-14" vertex="1">
          <mxGeometry y="26" width="160" height="74" as="geometry" />
        </mxCell>
        <mxCell id="fx0zeS7ggwG3Q2NJHzNw-16" value="" style="line;strokeWidth=1;fillColor=none;align=left;verticalAlign=middle;spacingTop=-1;spacingLeft=3;spacingRight=3;rotatable=0;labelPosition=right;points=[];portConstraint=eastwest;strokeColor=inherit;" parent="fx0zeS7ggwG3Q2NJHzNw-14" vertex="1">
          <mxGeometry y="100" width="160" height="8" as="geometry" />
        </mxCell>
        <mxCell id="fx0zeS7ggwG3Q2NJHzNw-17" value="+ display_courses()&lt;div&gt;+ add_new_course()&lt;/div&gt;&lt;div&gt;+ delete_course()&lt;/div&gt;&lt;div&gt;+ update_course()&lt;/div&gt;" style="text;strokeColor=none;fillColor=none;align=left;verticalAlign=top;spacingLeft=4;spacingRight=4;overflow=hidden;rotatable=0;points=[[0,0.5],[1,0.5]];portConstraint=eastwest;whiteSpace=wrap;html=1;" parent="fx0zeS7ggwG3Q2NJHzNw-14" vertex="1">
          <mxGeometry y="108" width="160" height="92" as="geometry" />
        </mxCell>
        <mxCell id="fx0zeS7ggwG3Q2NJHzNw-22" value="Professor" style="swimlane;fontStyle=1;align=center;verticalAlign=top;childLayout=stackLayout;horizontal=1;startSize=26;horizontalStack=0;resizeParent=1;resizeParentMax=0;resizeLast=0;collapsible=1;marginBottom=0;whiteSpace=wrap;html=1;" parent="WIyWlLk6GJQsqaUBKTNV-1" vertex="1">
          <mxGeometry x="540" y="500" width="220" height="228" as="geometry" />
        </mxCell>
        <mxCell id="fx0zeS7ggwG3Q2NJHzNw-23" value="+ first_name&lt;div&gt;+ last_name: str&lt;/div&gt;&lt;div&gt;+ email_address: str&lt;/div&gt;&lt;div&gt;+ rank: str&lt;/div&gt;&lt;div&gt;+ course.id&lt;/div&gt;" style="text;strokeColor=none;fillColor=none;align=left;verticalAlign=top;spacingLeft=4;spacingRight=4;overflow=hidden;rotatable=0;points=[[0,0.5],[1,0.5]];portConstraint=eastwest;whiteSpace=wrap;html=1;" parent="fx0zeS7ggwG3Q2NJHzNw-22" vertex="1">
          <mxGeometry y="26" width="220" height="84" as="geometry" />
        </mxCell>
        <mxCell id="fx0zeS7ggwG3Q2NJHzNw-24" value="" style="line;strokeWidth=1;fillColor=none;align=left;verticalAlign=middle;spacingTop=-1;spacingLeft=3;spacingRight=3;rotatable=0;labelPosition=right;points=[];portConstraint=eastwest;strokeColor=inherit;" parent="fx0zeS7ggwG3Q2NJHzNw-22" vertex="1">
          <mxGeometry y="110" width="220" height="8" as="geometry" />
        </mxCell>
        <mxCell id="fx0zeS7ggwG3Q2NJHzNw-25" value="+ display_professors()&lt;div&gt;+ add_new_professor()&lt;/div&gt;&lt;div&gt;+ delete_professor()&lt;/div&gt;&lt;div&gt;+ update_professor()&lt;/div&gt;&lt;div&gt;+ show_course_details_by_professor()&lt;/div&gt;" style="text;strokeColor=none;fillColor=none;align=left;verticalAlign=top;spacingLeft=4;spacingRight=4;overflow=hidden;rotatable=0;points=[[0,0.5],[1,0.5]];portConstraint=eastwest;whiteSpace=wrap;html=1;" parent="fx0zeS7ggwG3Q2NJHzNw-22" vertex="1">
          <mxGeometry y="118" width="220" height="110" as="geometry" />
        </mxCell>
        <mxCell id="fx0zeS7ggwG3Q2NJHzNw-26" value="LoginUser" style="swimlane;fontStyle=1;align=center;verticalAlign=top;childLayout=stackLayout;horizontal=1;startSize=26;horizontalStack=0;resizeParent=1;resizeParentMax=0;resizeLast=0;collapsible=1;marginBottom=0;whiteSpace=wrap;html=1;" parent="WIyWlLk6GJQsqaUBKTNV-1" vertex="1">
          <mxGeometry x="90" y="620" width="160" height="180" as="geometry" />
        </mxCell>
        <mxCell id="fx0zeS7ggwG3Q2NJHzNw-27" value="+ email_id: str&lt;div&gt;+ password: str&lt;/div&gt;" style="text;strokeColor=none;fillColor=none;align=left;verticalAlign=top;spacingLeft=4;spacingRight=4;overflow=hidden;rotatable=0;points=[[0,0.5],[1,0.5]];portConstraint=eastwest;whiteSpace=wrap;html=1;" parent="fx0zeS7ggwG3Q2NJHzNw-26" vertex="1">
          <mxGeometry y="26" width="160" height="44" as="geometry" />
        </mxCell>
        <mxCell id="fx0zeS7ggwG3Q2NJHzNw-28" value="" style="line;strokeWidth=1;fillColor=none;align=left;verticalAlign=middle;spacingTop=-1;spacingLeft=3;spacingRight=3;rotatable=0;labelPosition=right;points=[];portConstraint=eastwest;strokeColor=inherit;" parent="fx0zeS7ggwG3Q2NJHzNw-26" vertex="1">
          <mxGeometry y="70" width="160" height="8" as="geometry" />
        </mxCell>
        <mxCell id="fx0zeS7ggwG3Q2NJHzNw-29" value="+ login()&lt;div&gt;+ logout()&lt;/div&gt;&lt;div&gt;+ change_password()&lt;/div&gt;&lt;div&gt;+ encrypt_password()&lt;/div&gt;&lt;div&gt;+ decrypt_password()&lt;/div&gt;" style="text;strokeColor=none;fillColor=none;align=left;verticalAlign=top;spacingLeft=4;spacingRight=4;overflow=hidden;rotatable=0;points=[[0,0.5],[1,0.5]];portConstraint=eastwest;whiteSpace=wrap;html=1;" parent="fx0zeS7ggwG3Q2NJHzNw-26" vertex="1">
          <mxGeometry y="78" width="160" height="102" as="geometry" />
        </mxCell>
        <mxCell id="frMcVBluVbIt9hRwkk89-0" value="Grades" style="swimlane;fontStyle=1;align=center;verticalAlign=top;childLayout=stackLayout;horizontal=1;startSize=26;horizontalStack=0;resizeParent=1;resizeParentMax=0;resizeLast=0;collapsible=1;marginBottom=0;whiteSpace=wrap;html=1;" vertex="1" parent="WIyWlLk6GJQsqaUBKTNV-1">
          <mxGeometry x="330" y="550" width="160" height="190" as="geometry" />
        </mxCell>
        <mxCell id="frMcVBluVbIt9hRwkk89-1" value="+ grade_id: int&lt;div&gt;+ grade: str&lt;/div&gt;&lt;div&gt;+ marks_range: str&lt;/div&gt;&lt;div&gt;&lt;br&gt;&lt;/div&gt;&lt;div&gt;&lt;br&gt;&lt;/div&gt;" style="text;strokeColor=none;fillColor=none;align=left;verticalAlign=top;spacingLeft=4;spacingRight=4;overflow=hidden;rotatable=0;points=[[0,0.5],[1,0.5]];portConstraint=eastwest;whiteSpace=wrap;html=1;" vertex="1" parent="frMcVBluVbIt9hRwkk89-0">
          <mxGeometry y="26" width="160" height="64" as="geometry" />
        </mxCell>
        <mxCell id="frMcVBluVbIt9hRwkk89-2" value="" style="line;strokeWidth=1;fillColor=none;align=left;verticalAlign=middle;spacingTop=-1;spacingLeft=3;spacingRight=3;rotatable=0;labelPosition=right;points=[];portConstraint=eastwest;strokeColor=inherit;" vertex="1" parent="frMcVBluVbIt9hRwkk89-0">
          <mxGeometry y="90" width="160" height="8" as="geometry" />
        </mxCell>
        <mxCell id="frMcVBluVbIt9hRwkk89-3" value="+ add_grade()&lt;div&gt;+ delete_grade()&lt;/div&gt;&lt;div&gt;+ modify_grade()&lt;/div&gt;&lt;div&gt;+ display_grade_report()&lt;/div&gt;" style="text;strokeColor=none;fillColor=none;align=left;verticalAlign=top;spacingLeft=4;spacingRight=4;overflow=hidden;rotatable=0;points=[[0,0.5],[1,0.5]];portConstraint=eastwest;whiteSpace=wrap;html=1;" vertex="1" parent="frMcVBluVbIt9hRwkk89-0">
          <mxGeometry y="98" width="160" height="92" as="geometry" />
        </mxCell>
      </root>
    </mxGraphModel>
  </diagram>
</mxfile>
